<svg xmlns="http://www.w3.org/2000/svg" viewBox="0 0 512 512">
  <rect width="512" height="512" rx="112" fill="#2d6a4f"/>
  <circle cx="256" cy="256" r="168" fill="#d8f3dc"/>
  <path d="M255 384c-15-55-13-108 5-158 20-56 60-98 119-127 10 70-4 126-42 168-28 31-59 49-93 56 3 19 8 38 15 57z" fill="#40916c"/>
  <path d="M243 384c3-61-9-113-38-156-31-46-73-73-126-82 8 61 31 106 70 136 28 22 60 34 95 35 3 21 4 43 2 67z" fill="#52b788"/>
  <path d="M256 388c-15 0-27-12-27-27v-78c0-15 12-27 27-27s27 12 27 27v78c0 15-12 27-27 27z" fill="#1b4332"/>
  <path d="M141 403h230" stroke="#1b4332" stroke-width="34" stroke-linecap="round"/>
</svg>
